<svg width="560" height="118" viewBox="0 0 560 118" fill="none" xmlns="http://www.w3.org/2000/svg">
<g clip-path="url(#clip0_1504_22692)">
<path d="M119.957 11.8166C116.258 8.05989 111.845 5.07962 106.979 3.05054C102.113 1.02147 96.8901 -0.0155951 91.6177 0.000177238H33.2846C24.6211 0.0196605 16.3155 3.45799 10.1733 9.56772C4.03105 15.6775 0.548714 23.9647 0.483267 32.6279L0 117.776H14.9747L15.1891 79.7742H91.6177C99.4907 79.7746 107.188 77.4451 113.739 73.0791C120.291 68.7131 125.404 62.5059 128.434 55.2394C131.464 47.9729 132.276 39.9721 130.768 32.245C129.259 24.5178 125.498 17.4099 119.957 11.8166ZM91.6177 64.7996H15.2741L15.4579 32.7062C15.4929 27.9979 17.3853 23.4937 20.7236 20.1733C24.0619 16.8528 28.5761 14.9846 33.2846 14.9748H91.6177C94.9093 14.9747 98.1684 15.6269 101.207 16.8937C104.245 18.1606 107.002 20.0169 109.318 22.3556C111.635 24.6942 113.465 27.4687 114.703 30.5187C115.94 33.5688 116.561 36.8339 116.53 40.1254C116.447 46.6848 113.788 52.9486 109.127 57.5648C104.467 62.181 98.1775 64.7796 91.6177 64.7996Z" fill="url(#paint0_linear_1504_22692)"/>
<path d="M91.5326 112.259H40.2751C29.6738 112.259 19.5068 108.047 12.0105 100.551C4.5143 93.0549 0.302979 82.8878 0.302979 72.2865C0.302979 61.6853 4.5143 51.5182 12.0105 44.022C19.5068 36.5258 29.6738 32.3145 40.2751 32.3145H91.5326C102.134 32.3145 112.301 36.5258 119.797 44.022C127.293 51.5182 131.505 61.6853 131.505 72.2865C131.505 82.8878 127.293 93.0549 119.797 100.551C112.301 108.047 102.134 112.259 91.5326 112.259ZM40.2751 47.2891C33.6454 47.2891 27.2871 49.9227 22.5992 54.6107C17.9113 59.2986 15.2776 65.6568 15.2776 72.2865C15.2776 78.9163 17.9113 85.2745 22.5992 89.9624C27.2871 94.6504 33.6454 97.284 40.2751 97.284H91.5326C98.1624 97.284 104.521 94.6504 109.209 89.9624C113.896 85.2745 116.53 78.9163 116.53 72.2865C116.53 65.6568 113.896 59.2986 109.209 54.6107C104.521 49.9227 98.1624 47.2891 91.5326 47.2891H40.2751Z" fill="url(#paint1_linear_1504_22692)"/>
<path d="M112.589 117.776L75.2715 68.0295L93.8844 67.958L131.198 117.704L112.589 117.776Z" fill="url(#paint2_linear_1504_22692)"/>
<path d="M116.499 71.0687C116.23 65.5408 114.127 60.26 110.523 56.0601C108.815 58.0516 106.807 59.7647 104.571 61.1378C106.323 63.1751 107.569 65.5969 108.21 68.2064C108.85 70.816 108.866 73.5398 108.257 76.1567C111.202 74.8038 113.97 73.0951 116.499 71.0687Z" fill="url(#paint3_linear_1504_22692)"/>
<path d="M23.1052 72.2866C23.1022 69.6924 23.6912 67.1316 24.8273 64.7993H16.4245C14.8953 69.6738 14.8953 74.8995 16.4245 79.774H24.8273C23.6912 77.4417 23.1022 74.8809 23.1052 72.2866Z" fill="url(#paint4_linear_1504_22692)"/>
<path opacity="0.7" d="M97.958 111.735C100.854 111.266 103.689 110.479 106.412 109.386L96.8826 96.6987C95.1212 97.0877 93.3227 97.284 91.5189 97.2841H87.0946L97.958 111.735Z" fill="url(#paint5_linear_1504_22692)"/>
<path d="M15.2741 64.7992L15.4579 32.7058C15.4579 32.5765 15.4579 32.4472 15.4579 32.3145H0.483267C0.483267 32.42 0.483267 32.5221 0.483267 32.6276L0 117.775H14.9747L15.1891 79.7739L15.2741 64.7992Z" fill="url(#paint6_linear_1504_22692)"/>
<path d="M221.387 53.7316C223.287 53.7739 225.176 53.4264 226.937 52.7106C228.394 52.1173 229.647 51.112 230.542 49.8178C231.374 48.4831 231.818 46.9423 231.821 45.3691C231.825 43.796 231.389 42.2532 230.562 40.9147C229.668 39.6251 228.414 38.6264 226.958 38.0423C225.189 37.3278 223.294 36.9804 221.387 37.0213H181.568L187.939 29.7688V88.6464H173.73V25.7869H223.119C227.673 25.7869 231.695 26.6037 235.187 28.2373C238.497 29.7161 241.317 32.1065 243.318 35.129C245.244 38.0945 246.207 41.4978 246.207 45.339C246.207 49.1802 245.244 52.5541 243.318 55.4605C241.387 58.3806 238.677 60.6574 235.187 62.291C231.698 63.9246 227.675 64.7414 223.119 64.7414H183.565V53.6772L221.387 53.7316ZM208.059 59.2654H224.32L248.079 88.6838H231.403L208.059 59.2654Z" fill="black"/>
<path d="M289.947 89.9534C282.738 89.9534 276.355 88.5921 270.796 85.8694C265.237 83.1468 260.927 79.3123 257.864 74.3662C254.803 69.4223 253.272 63.7228 253.272 57.2678C253.272 50.8128 254.803 45.1134 257.864 40.1695C260.924 35.2256 265.235 31.3912 270.796 28.6663C276.357 25.9413 282.741 24.58 289.947 24.5823C297.182 24.5823 303.579 25.9436 309.138 28.6663C314.697 31.3889 319.008 35.2233 322.071 40.1695C325.129 45.1134 326.66 50.8128 326.662 57.2678C326.664 63.7228 325.134 69.4223 322.071 74.3662C319.012 79.3101 314.701 83.1445 309.138 85.8694C303.575 88.5944 297.178 89.9557 289.947 89.9534ZM289.947 77.2556C294.5 77.2556 298.454 76.4456 301.807 74.8256C305.017 73.3347 307.708 70.9196 309.536 67.8897C311.351 64.8879 312.259 61.3473 312.259 57.2678C312.259 53.1884 311.351 49.6467 309.536 46.6426C307.706 43.6143 305.015 41.1997 301.807 39.7067C298.456 38.0867 294.503 37.2767 289.947 37.2767C285.391 37.2767 281.451 38.0867 278.127 39.7067C274.915 41.2037 272.218 43.6168 270.374 46.6426C268.559 49.6467 267.652 53.1884 267.652 57.2678C267.652 61.3473 268.559 64.8879 270.374 67.8897C272.216 70.917 274.914 73.3307 278.127 74.8256C281.483 76.4366 285.423 77.242 289.947 77.242V77.2556Z" fill="black"/>
<path d="M350.713 25.8247V82.3575L344.342 76.1123H391.529V88.6842H336.504V25.8247H350.713Z" fill="black"/>
<path d="M413.654 25.8247V82.3575L407.273 76.1123H454.46V88.6842H399.445V25.8247H413.654Z" fill="black"/>
<path d="M462.407 25.8247H476.613V88.6842H462.407V25.8247Z" fill="black"/>
<path d="M523.116 89.9534C515.907 89.9534 509.524 88.5921 503.965 85.8694C498.406 83.1468 494.095 79.3123 491.032 74.3662C487.974 69.4223 486.444 63.7228 486.441 57.2678C486.439 50.8128 487.97 45.1134 491.032 40.1695C494.093 35.2256 498.404 31.3912 503.965 28.6663C509.526 25.9413 515.91 24.58 523.116 24.5823C530.351 24.5823 536.748 25.9436 542.307 28.6663C547.866 31.3889 552.177 35.2233 555.24 40.1695C558.298 45.1134 559.829 50.8128 559.831 57.2678C559.833 63.7228 558.303 69.4223 555.24 74.3662C552.179 79.3101 547.868 83.1445 542.307 85.8694C536.746 88.5944 530.349 89.9557 523.116 89.9534ZM523.116 77.2556C527.669 77.2556 531.623 76.4456 534.976 74.8256C538.186 73.3347 540.877 70.9196 542.705 67.8896C544.509 64.8879 545.411 61.3473 545.411 57.2678C545.411 53.1884 544.509 49.6467 542.705 46.6426C540.875 43.6143 538.184 41.1997 534.976 39.7067C531.623 38.0867 527.669 37.2767 523.116 37.2767C518.562 37.2767 514.622 38.0867 511.296 39.7067C508.084 41.2037 505.387 43.6168 503.543 46.6426C501.728 49.6467 500.82 53.1884 500.82 57.2678C500.82 61.3473 501.728 64.8879 503.543 67.8896C505.385 70.917 508.083 73.3306 511.296 74.8256C514.652 76.4366 518.591 77.242 523.116 77.242V77.2556ZM513.729 63.9316H530.868L558.486 93.224H541.024L513.729 63.9316Z" fill="black"/>
</g>
<defs>
<linearGradient id="paint0_linear_1504_22692" x1="65.7523" y1="-6.6193" x2="65.7523" y2="121.713" gradientUnits="userSpaceOnUse">
<stop stop-color="#1DD6FF"/>
<stop offset="0.48" stop-color="#2F3CB7"/>
<stop offset="0.53" stop-color="#393EB9"/>
<stop offset="0.62" stop-color="#5342BF"/>
<stop offset="0.72" stop-color="#7E49C9"/>
<stop offset="0.85" stop-color="#B952D6"/>
<stop offset="0.92" stop-color="#DD58DE"/>
</linearGradient>
<linearGradient id="paint1_linear_1504_22692" x1="65.9022" y1="-4.26114" x2="65.9022" y2="123.891" gradientUnits="userSpaceOnUse">
<stop offset="0.22" stop-color="#1DD6FF"/>
<stop offset="0.6" stop-color="#2F3CB7"/>
<stop offset="0.64" stop-color="#393EB9"/>
<stop offset="0.72" stop-color="#5342BF"/>
<stop offset="0.82" stop-color="#7E49C9"/>
<stop offset="0.93" stop-color="#B952D6"/>
<stop offset="1" stop-color="#DD58DE"/>
</linearGradient>
<linearGradient id="paint2_linear_1504_22692" x1="103.237" y1="-4.25725" x2="103.237" y2="123.892" gradientUnits="userSpaceOnUse">
<stop stop-color="#1DD6FF"/>
<stop offset="0.48" stop-color="#2F3CB7"/>
<stop offset="0.53" stop-color="#393EB9"/>
<stop offset="0.61" stop-color="#5342BF"/>
<stop offset="0.72" stop-color="#7E49C9"/>
<stop offset="0.84" stop-color="#B952D6"/>
<stop offset="0.91" stop-color="#DD58DE"/>
</linearGradient>
<linearGradient id="paint3_linear_1504_22692" x1="97.8627" y1="72.2735" x2="119.293" y2="60.8825" gradientUnits="userSpaceOnUse">
<stop stop-color="#1E2185" stop-opacity="0"/>
<stop offset="0.64" stop-color="#1E2185"/>
</linearGradient>
<linearGradient id="paint4_linear_1504_22692" x1="27.1484" y1="70.2412" x2="12.0886" y2="74.9651" gradientUnits="userSpaceOnUse">
<stop stop-color="#1E2185" stop-opacity="0"/>
<stop offset="0.87" stop-color="#1E2185"/>
</linearGradient>
<linearGradient id="paint5_linear_1504_22692" x1="87.5847" y1="111.173" x2="105.711" y2="95.6982" gradientUnits="userSpaceOnUse">
<stop stop-color="#1E2185" stop-opacity="0"/>
<stop offset="0.87" stop-color="#1E2185"/>
</linearGradient>
<linearGradient id="paint6_linear_1504_22692" x1="7.73577" y1="-6.61963" x2="7.73577" y2="121.713" gradientUnits="userSpaceOnUse">
<stop stop-color="#1DD6FF"/>
<stop offset="0.48" stop-color="#2F3CB7"/>
<stop offset="0.53" stop-color="#393EB9"/>
<stop offset="0.62" stop-color="#5342BF"/>
<stop offset="0.72" stop-color="#7E49C9"/>
<stop offset="0.85" stop-color="#B952D6"/>
<stop offset="0.92" stop-color="#DD58DE"/>
</linearGradient>
<clipPath id="clip0_1504_22692">
<rect width="559.827" height="117.776" fill="white"/>
</clipPath>
</defs>
</svg>
