<svg width="240" height="240" viewBox="0 0 240 240" fill="none" xmlns="http://www.w3.org/2000/svg">
<g filter="url(#filter0_ii_1018_21043)">
<path d="M177.459 178.65C179.531 181.65 180.743 185.16 180.963 188.799C181.184 192.439 180.405 196.069 178.711 199.297C177.016 202.526 174.471 205.23 171.351 207.116C168.23 209.002 164.653 210 161.007 210H78.9934C75.3469 210 71.7698 209.002 68.6493 207.116C65.5288 205.23 62.9837 202.526 61.2894 199.297C59.5951 196.069 58.816 192.439 59.0366 188.799C59.2572 185.16 60.469 181.65 62.5408 178.65L102.847 120L62.5408 61.35C60.469 58.3497 59.2572 54.84 59.0366 51.2007C58.816 47.5614 59.5951 43.9311 61.2894 40.7026C62.9837 37.4742 65.5288 34.7704 68.6493 32.884C71.7698 30.9975 75.3469 30.0002 78.9934 30H161.007C164.653 30.0002 168.23 30.9975 171.351 32.884C174.471 34.7704 177.016 37.4742 178.711 40.7026C180.405 43.9311 181.184 47.5614 180.963 51.2007C180.743 54.84 179.531 58.3497 177.459 61.35L137.153 120L177.459 178.65Z" fill="#E8E9F9"/>
</g>
<g filter="url(#filter1_i_1018_21043)">
<circle cx="120" cy="68" r="23" fill="#235FC2"/>
</g>
<defs>
<filter id="filter0_ii_1018_21043" x="57" y="27" width="126" height="186" filterUnits="userSpaceOnUse" color-interpolation-filters="sRGB">
<feFlood flood-opacity="0" result="BackgroundImageFix"/>
<feBlend mode="normal" in="SourceGraphic" in2="BackgroundImageFix" result="shape"/>
<feColorMatrix in="SourceAlpha" type="matrix" values="0 0 0 0 0 0 0 0 0 0 0 0 0 0 0 0 0 0 127 0" result="hardAlpha"/>
<feOffset dx="-2" dy="-3"/>
<feGaussianBlur stdDeviation="3.5"/>
<feComposite in2="hardAlpha" operator="arithmetic" k2="-1" k3="1"/>
<feColorMatrix type="matrix" values="0 0 0 0 1 0 0 0 0 1 0 0 0 0 1 0 0 0 0.69 0"/>
<feBlend mode="normal" in2="shape" result="effect1_innerShadow_1018_21043"/>
<feColorMatrix in="SourceAlpha" type="matrix" values="0 0 0 0 0 0 0 0 0 0 0 0 0 0 0 0 0 0 127 0" result="hardAlpha"/>
<feOffset dx="2" dy="3"/>
<feGaussianBlur stdDeviation="4.5"/>
<feComposite in2="hardAlpha" operator="arithmetic" k2="-1" k3="1"/>
<feColorMatrix type="matrix" values="0 0 0 0 0 0 0 0 0 0 0 0 0 0 0 0 0 0 0.1 0"/>
<feBlend mode="normal" in2="effect1_innerShadow_1018_21043" result="effect2_innerShadow_1018_21043"/>
</filter>
<filter id="filter1_i_1018_21043" x="89" y="37" width="54" height="54" filterUnits="userSpaceOnUse" color-interpolation-filters="sRGB">
<feFlood flood-opacity="0" result="BackgroundImageFix"/>
<feBlend mode="normal" in="SourceGraphic" in2="BackgroundImageFix" result="shape"/>
<feColorMatrix in="SourceAlpha" type="matrix" values="0 0 0 0 0 0 0 0 0 0 0 0 0 0 0 0 0 0 127 0" result="hardAlpha"/>
<feOffset dx="-8" dy="-8"/>
<feGaussianBlur stdDeviation="7"/>
<feComposite in2="hardAlpha" operator="arithmetic" k2="-1" k3="1"/>
<feColorMatrix type="matrix" values="0 0 0 0 0 0 0 0 0 0 0 0 0 0 0 0 0 0 0.25 0"/>
<feBlend mode="normal" in2="shape" result="effect1_innerShadow_1018_21043"/>
</filter>
</defs>
</svg>
